<?xml version="1.0" standalone="no"?>
<!DOCTYPE svg PUBLIC "-//W3C//DTD SVG 20010904//EN"
 "http://www.w3.org/TR/2001/REC-SVG-20010904/DTD/svg10.dtd">
<svg version="1.0" xmlns="http://www.w3.org/2000/svg"
 width="800.000000pt" height="800.000000pt" viewBox="0 0 800.000000 800.000000"
 preserveAspectRatio="xMidYMid meet">
<metadata>
Created by potrace 1.14, written by Peter Selinger 2001-2017
</metadata>
<g transform="translate(0.000000,800.000000) scale(0.100000,-0.100000)"
fill="#000000" stroke="none">
<path d="M376 7788 c116 -117 577 -583 1025 -1036 l814 -822 289 2 290 3
-1024 1033 -1023 1032 -291 0 -290 0 210 -212z"/>
<path d="M1101 7923 c40 -43 484 -509 987 -1035 l913 -958 270 0 c149 0 269 4
267 8 -1 5 -444 471 -982 1035 l-980 1027 -274 0 -275 0 74 -77z"/>
<path d="M1866 7898 c55 -57 499 -523 988 -1035 l889 -933 682 0 c646 0 686
-1 759 -20 321 -82 539 -359 539 -685 0 -273 -150 -512 -398 -635 -152 -75
-128 -73 -908 -79 l-697 -6 347 -345 c820 -813 1443 -1430 1509 -1493 l71 -68
84 21 c326 83 610 207 879 385 179 119 275 199 440 364 910 913 1048 2320 334
3398 -204 308 -499 597 -816 799 -137 88 -414 223 -563 274 -227 79 -455 128
-695 149 -75 7 -716 11 -1829 11 l-1714 0 99 -102z"/>
<path d="M172 4511 c2 -6 228 -232 503 -503 275 -271 1302 -1284 2282 -2250
l1781 -1757 109 5 c59 2 324 9 588 14 1185 25 1863 40 2025 46 l174 6 -104
101 c-58 56 -429 421 -825 812 -396 390 -1364 1346 -2152 2123 l-1432 1412
-1476 0 c-928 0 -1475 -4 -1473 -9z"/>
</g>
</svg>
