<?xml version="1.0" standalone="no"?>
<!DOCTYPE svg PUBLIC "-//W3C//DTD SVG 20010904//EN"
 "http://www.w3.org/TR/2001/REC-SVG-20010904/DTD/svg10.dtd">
<svg version="1.0" xmlns="http://www.w3.org/2000/svg"
 width="800.000000pt" height="800.000000pt" viewBox="0 0 800.000000 800.000000"
 preserveAspectRatio="xMidYMid meet">
<metadata>
Created by potrace 1.14, written by Peter Selinger 2001-2017
</metadata>
<g transform="translate(0.000000,800.000000) scale(0.100000,-0.100000)"
fill="#000000" stroke="none">
<path d="M196 7969 c16 -17 202 -205 412 -417 211 -213 658 -664 993 -1003
l610 -615 289 0 c160 0 290 1 290 2 0 3 -62 66 -1278 1292 l-766 772 -290 0
-290 0 30 -31z"/>
<path d="M1070 7953 c25 -25 68 -70 95 -98 28 -29 113 -119 190 -200 77 -81
172 -180 210 -220 39 -40 140 -146 225 -236 85 -89 178 -186 205 -214 28 -29
118 -123 200 -210 83 -87 182 -191 220 -230 39 -40 133 -139 210 -221 77 -81
169 -178 205 -214 36 -37 88 -92 116 -122 l51 -54 272 0 c149 -1 271 0 271 1
0 5 -190 207 -420 446 -30 31 -111 116 -180 189 -69 72 -159 167 -200 210 -41
43 -138 144 -215 225 -77 81 -169 177 -205 215 -36 37 -119 125 -185 194 -66
70 -169 178 -230 241 -60 63 -159 166 -219 230 l-109 115 -275 0 -276 0 44
-47z"/>
<path d="M1821 7944 c30 -31 81 -84 114 -119 33 -34 130 -135 215 -225 85 -90
182 -191 215 -225 33 -34 119 -124 190 -200 72 -76 164 -173 205 -215 41 -43
145 -151 230 -241 85 -89 173 -181 195 -204 22 -23 108 -113 190 -200 83 -86
198 -207 257 -269 l107 -111 663 -1 c365 -1 681 -4 703 -7 170 -26 312 -99
427 -220 54 -57 111 -145 135 -207 41 -107 38 -98 49 -155 10 -58 11 -172 1
-230 -12 -67 -55 -194 -78 -227 -11 -14 -19 -29 -19 -34 0 -12 -71 -97 -124
-147 -58 -55 -156 -116 -236 -147 -30 -12 -56 -21 -57 -21 -2 1 -4 1 -5 0 -18
-5 -50 -10 -79 -13 -20 -2 -40 -5 -45 -8 -5 -2 -314 -4 -687 -4 l-678 1 533
-528 c293 -291 728 -722 967 -958 398 -395 436 -430 460 -424 14 4 33 8 41 10
8 2 35 8 60 15 25 7 52 14 60 15 25 6 223 72 255 85 17 7 39 16 50 21 71 29
321 153 323 160 2 5 8 9 13 9 23 0 328 210 337 232 2 4 10 8 17 8 7 0 15 4 17
8 2 4 44 44 93 88 131 117 202 193 319 339 69 87 196 268 196 281 0 3 8 18 19
32 37 54 181 350 181 373 0 5 4 17 10 27 12 20 71 198 76 227 2 11 13 56 25
100 23 87 26 101 34 155 3 20 7 47 10 60 5 24 8 53 22 165 3 28 6 142 6 255 1
187 -3 255 -19 363 -3 20 -7 47 -9 60 -10 69 -24 142 -50 247 -2 8 -4 15 -5
15 -1 0 -3 10 -6 22 -2 12 -18 66 -36 120 -17 54 -32 100 -32 103 -1 3 -10 26
-20 50 -11 25 -28 65 -39 90 -58 136 -147 300 -231 425 -67 101 -64 96 -106
146 -16 20 -30 39 -30 43 0 3 -8 14 -17 24 -10 10 -45 49 -78 87 -103 118
-322 320 -405 375 -13 8 -34 25 -48 38 -14 12 -28 22 -33 22 -4 0 -14 6 -21
13 -8 6 -23 17 -33 24 -211 130 -341 198 -507 264 -99 39 -320 111 -383 123
-34 7 -64 14 -97 21 -42 9 -143 26 -183 30 -22 2 -58 7 -80 11 -22 5 -840 9
-1819 11 l-1778 4 53 -57z"/>
<path d="M170 4511 c0 -3 121 -124 269 -270 312 -307 1082 -1067 1436 -1416
134 -132 445 -439 691 -682 247 -243 585 -576 751 -740 458 -451 1149 -1132
1293 -1274 l128 -126 108 3 c60 1 226 5 369 8 143 3 364 8 490 11 127 3 327 7
445 10 118 2 225 6 238 9 12 3 22 0 22 -5 0 -6 5 -7 12 -3 6 4 77 8 157 9 146
3 820 18 1020 24 33 1 31 4 -146 178 -647 638 -1224 1207 -1466 1446 -155 153
-475 469 -712 702 -236 233 -541 533 -676 667 -136 134 -455 449 -710 700
-255 251 -531 523 -613 605 l-150 148 -1478 0 c-813 0 -1478 -2 -1478 -4z"/>
</g>
</svg>
